<svg width="271" height="26" viewBox="0 0 271 26" fill="none" xmlns="http://www.w3.org/2000/svg">
<path d="M109.854 19C109.722 19 109.614 18.958 109.53 18.874C109.446 18.79 109.404 18.688 109.404 18.568V6.85C109.404 6.718 109.446 6.61 109.53 6.526C109.614 6.442 109.722 6.4 109.854 6.4H111.276C111.444 6.4 111.57 6.448 111.654 6.544C111.738 6.628 111.792 6.694 111.816 6.742L115.29 13.222L118.8 6.742C118.824 6.694 118.878 6.628 118.962 6.544C119.046 6.448 119.172 6.4 119.34 6.4H120.744C120.876 6.4 120.984 6.442 121.068 6.526C121.152 6.61 121.194 6.718 121.194 6.85V18.568C121.194 18.688 121.152 18.79 121.068 18.874C120.984 18.958 120.876 19 120.744 19H119.232C119.1 19 118.992 18.958 118.908 18.874C118.836 18.79 118.8 18.688 118.8 18.568V10.774L116.28 15.58C116.22 15.688 116.142 15.784 116.046 15.868C115.95 15.94 115.824 15.976 115.668 15.976H114.93C114.762 15.976 114.63 15.94 114.534 15.868C114.45 15.784 114.378 15.688 114.318 15.58L111.798 10.774V18.568C111.798 18.688 111.756 18.79 111.672 18.874C111.588 18.958 111.486 19 111.366 19H109.854ZM126.496 19.18C125.872 19.18 125.308 19.06 124.804 18.82C124.3 18.568 123.898 18.238 123.598 17.83C123.31 17.41 123.166 16.942 123.166 16.426C123.166 15.586 123.502 14.92 124.174 14.428C124.858 13.924 125.758 13.588 126.874 13.42L129.34 13.06V12.682C129.34 12.178 129.214 11.788 128.962 11.512C128.71 11.236 128.278 11.098 127.666 11.098C127.234 11.098 126.88 11.188 126.604 11.368C126.34 11.536 126.142 11.764 126.01 12.052C125.914 12.208 125.776 12.286 125.596 12.286H124.174C124.042 12.286 123.94 12.25 123.868 12.178C123.808 12.106 123.778 12.01 123.778 11.89C123.79 11.698 123.868 11.464 124.012 11.188C124.156 10.912 124.384 10.648 124.696 10.396C125.008 10.132 125.41 9.91 125.902 9.73C126.394 9.55 126.988 9.46 127.684 9.46C128.44 9.46 129.076 9.556 129.592 9.748C130.12 9.928 130.54 10.174 130.852 10.486C131.164 10.798 131.392 11.164 131.536 11.584C131.68 12.004 131.752 12.448 131.752 12.916V18.568C131.752 18.688 131.71 18.79 131.626 18.874C131.542 18.958 131.44 19 131.32 19H129.862C129.73 19 129.622 18.958 129.538 18.874C129.466 18.79 129.43 18.688 129.43 18.568V17.866C129.274 18.094 129.064 18.31 128.8 18.514C128.536 18.706 128.212 18.868 127.828 19C127.456 19.12 127.012 19.18 126.496 19.18ZM127.108 17.47C127.528 17.47 127.906 17.38 128.242 17.2C128.59 17.02 128.86 16.744 129.052 16.372C129.256 15.988 129.358 15.508 129.358 14.932V14.554L127.558 14.842C126.85 14.95 126.322 15.124 125.974 15.364C125.626 15.604 125.452 15.898 125.452 16.246C125.452 16.51 125.53 16.738 125.686 16.93C125.854 17.11 126.064 17.248 126.316 17.344C126.568 17.428 126.832 17.47 127.108 17.47ZM134.493 19C134.373 19 134.271 18.958 134.187 18.874C134.103 18.79 134.061 18.688 134.061 18.568V10.072C134.061 9.952 134.103 9.85 134.187 9.766C134.271 9.682 134.373 9.64 134.493 9.64H135.969C136.089 9.64 136.191 9.682 136.275 9.766C136.359 9.85 136.401 9.952 136.401 10.072V10.81C136.713 10.426 137.109 10.108 137.589 9.856C138.081 9.592 138.687 9.46 139.407 9.46C140.139 9.46 140.775 9.628 141.315 9.964C141.855 10.288 142.269 10.75 142.557 11.35C142.857 11.95 143.007 12.67 143.007 13.51V18.568C143.007 18.688 142.965 18.79 142.881 18.874C142.797 18.958 142.695 19 142.575 19H140.991C140.871 19 140.769 18.958 140.685 18.874C140.601 18.79 140.559 18.688 140.559 18.568V13.618C140.559 12.922 140.385 12.376 140.037 11.98C139.701 11.584 139.209 11.386 138.561 11.386C137.937 11.386 137.439 11.584 137.067 11.98C136.695 12.376 136.509 12.922 136.509 13.618V18.568C136.509 18.688 136.467 18.79 136.383 18.874C136.299 18.958 136.197 19 136.077 19H134.493ZM148.011 19.18C147.387 19.18 146.823 19.06 146.319 18.82C145.815 18.568 145.413 18.238 145.113 17.83C144.825 17.41 144.681 16.942 144.681 16.426C144.681 15.586 145.017 14.92 145.689 14.428C146.373 13.924 147.273 13.588 148.389 13.42L150.855 13.06V12.682C150.855 12.178 150.729 11.788 150.477 11.512C150.225 11.236 149.793 11.098 149.181 11.098C148.749 11.098 148.395 11.188 148.119 11.368C147.855 11.536 147.657 11.764 147.525 12.052C147.429 12.208 147.291 12.286 147.111 12.286H145.689C145.557 12.286 145.455 12.25 145.383 12.178C145.323 12.106 145.293 12.01 145.293 11.89C145.305 11.698 145.383 11.464 145.527 11.188C145.671 10.912 145.899 10.648 146.211 10.396C146.523 10.132 146.925 9.91 147.417 9.73C147.909 9.55 148.503 9.46 149.199 9.46C149.955 9.46 150.591 9.556 151.107 9.748C151.635 9.928 152.055 10.174 152.367 10.486C152.679 10.798 152.907 11.164 153.051 11.584C153.195 12.004 153.267 12.448 153.267 12.916V18.568C153.267 18.688 153.225 18.79 153.141 18.874C153.057 18.958 152.955 19 152.835 19H151.377C151.245 19 151.137 18.958 151.053 18.874C150.981 18.79 150.945 18.688 150.945 18.568V17.866C150.789 18.094 150.579 18.31 150.315 18.514C150.051 18.706 149.727 18.868 149.343 19C148.971 19.12 148.527 19.18 148.011 19.18ZM148.623 17.47C149.043 17.47 149.421 17.38 149.757 17.2C150.105 17.02 150.375 16.744 150.567 16.372C150.771 15.988 150.873 15.508 150.873 14.932V14.554L149.073 14.842C148.365 14.95 147.837 15.124 147.489 15.364C147.141 15.604 146.967 15.898 146.967 16.246C146.967 16.51 147.045 16.738 147.201 16.93C147.369 17.11 147.579 17.248 147.831 17.344C148.083 17.428 148.347 17.47 148.623 17.47ZM159.807 22.96C158.931 22.96 158.211 22.846 157.647 22.618C157.083 22.39 156.639 22.114 156.315 21.79C155.991 21.466 155.757 21.142 155.613 20.818C155.481 20.506 155.409 20.26 155.397 20.08C155.385 19.96 155.421 19.852 155.505 19.756C155.601 19.672 155.709 19.63 155.829 19.63H157.395C157.515 19.63 157.611 19.654 157.683 19.702C157.755 19.762 157.815 19.864 157.863 20.008C157.935 20.164 158.031 20.332 158.151 20.512C158.271 20.692 158.451 20.842 158.691 20.962C158.943 21.094 159.285 21.16 159.717 21.16C160.173 21.16 160.557 21.094 160.869 20.962C161.181 20.83 161.415 20.608 161.571 20.296C161.739 19.984 161.823 19.552 161.823 19V17.776C161.535 18.124 161.163 18.406 160.707 18.622C160.263 18.838 159.711 18.946 159.051 18.946C158.403 18.946 157.845 18.844 157.377 18.64C156.909 18.424 156.519 18.13 156.207 17.758C155.895 17.374 155.655 16.924 155.487 16.408C155.331 15.892 155.241 15.322 155.217 14.698C155.205 14.374 155.205 14.05 155.217 13.726C155.241 13.126 155.331 12.568 155.487 12.052C155.643 11.536 155.877 11.086 156.189 10.702C156.513 10.306 156.909 10 157.377 9.784C157.845 9.568 158.403 9.46 159.051 9.46C159.735 9.46 160.311 9.592 160.779 9.856C161.247 10.108 161.631 10.426 161.931 10.81V10.09C161.931 9.958 161.973 9.85 162.057 9.766C162.141 9.682 162.243 9.64 162.363 9.64H163.821C163.941 9.64 164.043 9.682 164.127 9.766C164.211 9.85 164.253 9.958 164.253 10.09L164.271 18.766C164.271 19.63 164.109 20.374 163.785 20.998C163.461 21.622 162.969 22.102 162.309 22.438C161.661 22.786 160.827 22.96 159.807 22.96ZM159.717 17.038C160.209 17.038 160.605 16.93 160.905 16.714C161.205 16.498 161.427 16.216 161.571 15.868C161.715 15.52 161.799 15.166 161.823 14.806C161.835 14.65 161.841 14.452 161.841 14.212C161.841 13.972 161.835 13.78 161.823 13.636C161.799 13.264 161.715 12.91 161.571 12.574C161.427 12.226 161.205 11.944 160.905 11.728C160.605 11.5 160.209 11.386 159.717 11.386C159.225 11.386 158.829 11.5 158.529 11.728C158.229 11.944 158.013 12.232 157.881 12.592C157.761 12.952 157.689 13.348 157.665 13.78C157.641 14.068 157.641 14.362 157.665 14.662C157.689 15.082 157.761 15.478 157.881 15.85C158.013 16.21 158.229 16.498 158.529 16.714C158.829 16.93 159.225 17.038 159.717 17.038ZM167.1 19C166.98 19 166.878 18.958 166.794 18.874C166.71 18.79 166.668 18.688 166.668 18.568V10.072C166.668 9.952 166.71 9.85 166.794 9.766C166.878 9.682 166.98 9.64 167.1 9.64H168.504C168.624 9.64 168.726 9.682 168.81 9.766C168.894 9.85 168.936 9.952 168.936 10.072V10.684C169.188 10.348 169.524 10.066 169.944 9.838C170.376 9.598 170.886 9.472 171.474 9.46C172.842 9.436 173.796 9.97 174.336 11.062C174.612 10.582 175.008 10.198 175.524 9.91C176.052 9.61 176.634 9.46 177.27 9.46C177.894 9.46 178.458 9.604 178.962 9.892C179.478 10.18 179.88 10.618 180.168 11.206C180.468 11.782 180.618 12.514 180.618 13.402V18.568C180.618 18.688 180.576 18.79 180.492 18.874C180.408 18.958 180.306 19 180.186 19H178.71C178.59 19 178.488 18.958 178.404 18.874C178.32 18.79 178.278 18.688 178.278 18.568V13.546C178.278 13.006 178.2 12.58 178.044 12.268C177.888 11.944 177.678 11.716 177.414 11.584C177.15 11.452 176.856 11.386 176.532 11.386C176.268 11.386 176.004 11.452 175.74 11.584C175.476 11.716 175.26 11.944 175.092 12.268C174.924 12.58 174.84 13.006 174.84 13.546V18.568C174.84 18.688 174.798 18.79 174.714 18.874C174.63 18.958 174.528 19 174.408 19H172.932C172.8 19 172.692 18.958 172.608 18.874C172.536 18.79 172.5 18.688 172.5 18.568V13.546C172.5 13.006 172.416 12.58 172.248 12.268C172.08 11.944 171.864 11.716 171.6 11.584C171.336 11.452 171.054 11.386 170.754 11.386C170.478 11.386 170.208 11.458 169.944 11.602C169.68 11.734 169.464 11.956 169.296 12.268C169.128 12.58 169.044 13.006 169.044 13.546V18.568C169.044 18.688 169.002 18.79 168.918 18.874C168.834 18.958 168.732 19 168.612 19H167.1ZM186.943 19.18C185.611 19.18 184.555 18.796 183.775 18.028C182.995 17.26 182.575 16.168 182.515 14.752C182.503 14.632 182.497 14.482 182.497 14.302C182.497 14.11 182.503 13.96 182.515 13.852C182.563 12.952 182.767 12.172 183.127 11.512C183.499 10.852 184.009 10.348 184.657 10C185.305 9.64 186.067 9.46 186.943 9.46C187.915 9.46 188.731 9.664 189.391 10.072C190.051 10.468 190.549 11.026 190.885 11.746C191.221 12.454 191.389 13.276 191.389 14.212V14.59C191.389 14.71 191.347 14.812 191.263 14.896C191.179 14.98 191.071 15.022 190.939 15.022H184.963C184.963 15.022 184.963 15.04 184.963 15.076C184.963 15.112 184.963 15.142 184.963 15.166C184.975 15.586 185.053 15.976 185.197 16.336C185.353 16.684 185.575 16.966 185.863 17.182C186.163 17.398 186.517 17.506 186.925 17.506C187.261 17.506 187.543 17.458 187.771 17.362C187.999 17.254 188.185 17.134 188.329 17.002C188.473 16.87 188.575 16.762 188.635 16.678C188.743 16.534 188.827 16.45 188.887 16.426C188.959 16.39 189.061 16.372 189.193 16.372H190.741C190.861 16.372 190.957 16.408 191.029 16.48C191.113 16.552 191.149 16.642 191.137 16.75C191.125 16.942 191.023 17.176 190.831 17.452C190.651 17.728 190.387 17.998 190.039 18.262C189.691 18.526 189.253 18.748 188.725 18.928C188.209 19.096 187.615 19.18 186.943 19.18ZM184.963 13.51H188.941V13.456C188.941 12.988 188.863 12.58 188.707 12.232C188.551 11.884 188.323 11.608 188.023 11.404C187.723 11.2 187.363 11.098 186.943 11.098C186.523 11.098 186.163 11.2 185.863 11.404C185.563 11.608 185.335 11.884 185.179 12.232C185.035 12.58 184.963 12.988 184.963 13.456V13.51ZM193.731 19C193.611 19 193.509 18.958 193.425 18.874C193.341 18.79 193.299 18.688 193.299 18.568V10.072C193.299 9.952 193.341 9.85 193.425 9.766C193.509 9.682 193.611 9.64 193.731 9.64H195.207C195.327 9.64 195.429 9.682 195.513 9.766C195.597 9.85 195.639 9.952 195.639 10.072V10.81C195.951 10.426 196.347 10.108 196.827 9.856C197.319 9.592 197.925 9.46 198.645 9.46C199.377 9.46 200.013 9.628 200.553 9.964C201.093 10.288 201.507 10.75 201.795 11.35C202.095 11.95 202.245 12.67 202.245 13.51V18.568C202.245 18.688 202.203 18.79 202.119 18.874C202.035 18.958 201.933 19 201.813 19H200.229C200.109 19 200.007 18.958 199.923 18.874C199.839 18.79 199.797 18.688 199.797 18.568V13.618C199.797 12.922 199.623 12.376 199.275 11.98C198.939 11.584 198.447 11.386 197.799 11.386C197.175 11.386 196.677 11.584 196.305 11.98C195.933 12.376 195.747 12.922 195.747 13.618V18.568C195.747 18.688 195.705 18.79 195.621 18.874C195.537 18.958 195.435 19 195.315 19H193.731ZM208.656 19C207.936 19 207.33 18.874 206.838 18.622C206.346 18.37 205.98 17.998 205.74 17.506C205.5 17.002 205.38 16.378 205.38 15.634V11.548H203.958C203.838 11.548 203.736 11.506 203.652 11.422C203.568 11.338 203.526 11.236 203.526 11.116V10.072C203.526 9.952 203.568 9.85 203.652 9.766C203.736 9.682 203.838 9.64 203.958 9.64H205.38V6.652C205.38 6.532 205.416 6.43 205.488 6.346C205.572 6.262 205.68 6.22 205.812 6.22H207.27C207.39 6.22 207.492 6.262 207.576 6.346C207.66 6.43 207.702 6.532 207.702 6.652V9.64H209.952C210.072 9.64 210.174 9.682 210.258 9.766C210.342 9.85 210.384 9.952 210.384 10.072V11.116C210.384 11.236 210.342 11.338 210.258 11.422C210.174 11.506 210.072 11.548 209.952 11.548H207.702V15.454C207.702 15.946 207.786 16.33 207.954 16.606C208.134 16.882 208.44 17.02 208.872 17.02H210.114C210.234 17.02 210.336 17.062 210.42 17.146C210.504 17.23 210.546 17.332 210.546 17.452V18.568C210.546 18.688 210.504 18.79 210.42 18.874C210.336 18.958 210.234 19 210.114 19H208.656ZM216.427 19.18C215.455 19.18 214.627 19.024 213.943 18.712C213.271 18.4 212.755 17.998 212.395 17.506C212.035 17.014 211.843 16.492 211.819 15.94C211.819 15.844 211.855 15.76 211.927 15.688C211.999 15.616 212.089 15.58 212.197 15.58H212.557C212.677 15.58 212.767 15.616 212.827 15.688C212.899 15.76 212.941 15.844 212.953 15.94C213.001 16.276 213.151 16.612 213.403 16.948C213.655 17.272 214.027 17.548 214.519 17.776C215.011 17.992 215.647 18.1 216.427 18.1C217.603 18.1 218.461 17.89 219.001 17.47C219.541 17.038 219.811 16.462 219.811 15.742C219.811 15.262 219.667 14.878 219.379 14.59C219.103 14.29 218.677 14.026 218.101 13.798C217.525 13.558 216.787 13.294 215.887 13.006C215.035 12.73 214.333 12.448 213.781 12.16C213.229 11.86 212.821 11.5 212.557 11.08C212.305 10.66 212.179 10.12 212.179 9.46C212.179 8.848 212.341 8.302 212.665 7.822C212.989 7.33 213.457 6.94 214.069 6.652C214.693 6.364 215.449 6.22 216.337 6.22C217.045 6.22 217.663 6.316 218.191 6.508C218.719 6.7 219.157 6.958 219.505 7.282C219.853 7.594 220.117 7.936 220.297 8.308C220.477 8.668 220.573 9.022 220.585 9.37C220.585 9.454 220.555 9.538 220.495 9.622C220.435 9.694 220.339 9.73 220.207 9.73H219.847C219.787 9.73 219.709 9.706 219.613 9.658C219.529 9.61 219.475 9.514 219.451 9.37C219.379 8.77 219.061 8.278 218.497 7.894C217.945 7.498 217.225 7.3 216.337 7.3C215.449 7.3 214.723 7.474 214.159 7.822C213.595 8.17 213.313 8.716 213.313 9.46C213.313 9.94 213.439 10.336 213.691 10.648C213.943 10.948 214.339 11.218 214.879 11.458C215.419 11.686 216.115 11.938 216.967 12.214C217.867 12.502 218.611 12.79 219.199 13.078C219.787 13.366 220.225 13.72 220.513 14.14C220.801 14.548 220.945 15.082 220.945 15.742C220.945 16.474 220.759 17.098 220.387 17.614C220.027 18.118 219.511 18.508 218.839 18.784C218.167 19.048 217.363 19.18 216.427 19.18ZM224.896 22.42C224.8 22.42 224.716 22.384 224.644 22.312C224.572 22.24 224.536 22.156 224.536 22.06C224.536 22.012 224.542 21.958 224.554 21.898C224.578 21.85 224.608 21.784 224.644 21.7L226.03 18.46L222.592 10.36C222.52 10.18 222.484 10.06 222.484 10C222.484 9.904 222.52 9.82 222.592 9.748C222.664 9.676 222.748 9.64 222.844 9.64H223.222C223.342 9.64 223.432 9.67 223.492 9.73C223.564 9.778 223.612 9.838 223.636 9.91L226.66 17.038L229.756 9.91C229.792 9.838 229.84 9.778 229.9 9.73C229.96 9.67 230.05 9.64 230.17 9.64H230.53C230.626 9.64 230.71 9.676 230.782 9.748C230.854 9.82 230.89 9.904 230.89 10C230.89 10.06 230.854 10.18 230.782 10.36L225.67 22.15C225.634 22.222 225.586 22.282 225.526 22.33C225.466 22.39 225.376 22.42 225.256 22.42H224.896ZM235.598 19.18C234.974 19.18 234.434 19.096 233.978 18.928C233.534 18.76 233.168 18.562 232.88 18.334C232.592 18.094 232.376 17.86 232.232 17.632C232.1 17.404 232.028 17.23 232.016 17.11C232.004 16.978 232.046 16.882 232.142 16.822C232.238 16.75 232.328 16.714 232.412 16.714H232.682C232.754 16.714 232.814 16.726 232.862 16.75C232.922 16.774 232.994 16.84 233.078 16.948C233.234 17.152 233.414 17.35 233.618 17.542C233.822 17.722 234.08 17.866 234.392 17.974C234.716 18.082 235.118 18.136 235.598 18.136C236.318 18.136 236.912 17.998 237.38 17.722C237.848 17.446 238.082 17.038 238.082 16.498C238.082 16.162 237.986 15.892 237.794 15.688C237.614 15.484 237.302 15.304 236.858 15.148C236.414 14.992 235.814 14.83 235.058 14.662C234.302 14.482 233.72 14.266 233.312 14.014C232.916 13.762 232.646 13.474 232.502 13.15C232.358 12.814 232.286 12.454 232.286 12.07C232.286 11.65 232.406 11.242 232.646 10.846C232.886 10.438 233.24 10.108 233.708 9.856C234.188 9.592 234.788 9.46 235.508 9.46C236.096 9.46 236.594 9.538 237.002 9.694C237.422 9.85 237.764 10.042 238.028 10.27C238.292 10.486 238.484 10.702 238.604 10.918C238.736 11.134 238.808 11.308 238.82 11.44C238.832 11.56 238.796 11.656 238.712 11.728C238.628 11.8 238.532 11.836 238.424 11.836H238.154C238.058 11.836 237.98 11.818 237.92 11.782C237.86 11.734 237.806 11.674 237.758 11.602C237.638 11.41 237.494 11.23 237.326 11.062C237.158 10.894 236.93 10.762 236.642 10.666C236.366 10.558 235.988 10.504 235.508 10.504C234.788 10.504 234.254 10.654 233.906 10.954C233.558 11.242 233.384 11.614 233.384 12.07C233.384 12.334 233.456 12.568 233.6 12.772C233.744 12.964 234.014 13.144 234.41 13.312C234.806 13.468 235.382 13.636 236.138 13.816C236.906 13.984 237.512 14.194 237.956 14.446C238.4 14.686 238.712 14.974 238.892 15.31C239.084 15.646 239.18 16.042 239.18 16.498C239.18 16.978 239.042 17.422 238.766 17.83C238.502 18.238 238.1 18.568 237.56 18.82C237.032 19.06 236.378 19.18 235.598 19.18ZM244.637 19C244.013 19 243.521 18.868 243.161 18.604C242.801 18.34 242.549 17.98 242.405 17.524C242.261 17.068 242.189 16.558 242.189 15.994V10.684H240.785C240.665 10.684 240.569 10.648 240.497 10.576C240.425 10.504 240.389 10.408 240.389 10.288V10.036C240.389 9.916 240.425 9.82 240.497 9.748C240.569 9.676 240.665 9.64 240.785 9.64H242.189V6.616C242.189 6.496 242.225 6.4 242.297 6.328C242.369 6.256 242.465 6.22 242.585 6.22H242.891C243.011 6.22 243.107 6.256 243.179 6.328C243.251 6.4 243.287 6.496 243.287 6.616V9.64H245.519C245.639 9.64 245.735 9.676 245.807 9.748C245.879 9.82 245.915 9.916 245.915 10.036V10.288C245.915 10.408 245.879 10.504 245.807 10.576C245.735 10.648 245.639 10.684 245.519 10.684H243.287V15.922C243.287 16.558 243.389 17.056 243.593 17.416C243.809 17.776 244.187 17.956 244.727 17.956H245.699C245.819 17.956 245.915 17.992 245.987 18.064C246.059 18.136 246.095 18.232 246.095 18.352V18.604C246.095 18.724 246.059 18.82 245.987 18.892C245.915 18.964 245.819 19 245.699 19H244.637ZM251.43 19.18C250.266 19.18 249.342 18.802 248.658 18.046C247.974 17.278 247.584 16.276 247.488 15.04C247.476 14.86 247.47 14.62 247.47 14.32C247.47 14.02 247.476 13.78 247.488 13.6C247.548 12.784 247.74 12.064 248.064 11.44C248.388 10.816 248.832 10.33 249.396 9.982C249.972 9.634 250.65 9.46 251.43 9.46C252.27 9.46 252.984 9.646 253.572 10.018C254.16 10.39 254.61 10.924 254.922 11.62C255.246 12.316 255.408 13.144 255.408 14.104V14.374C255.408 14.494 255.366 14.59 255.282 14.662C255.21 14.734 255.114 14.77 254.994 14.77H248.586C248.586 14.77 248.586 14.794 248.586 14.842C248.586 14.89 248.586 14.926 248.586 14.95C248.61 15.49 248.736 16.006 248.964 16.498C249.192 16.978 249.516 17.374 249.936 17.686C250.356 17.986 250.854 18.136 251.43 18.136C251.946 18.136 252.372 18.058 252.708 17.902C253.056 17.746 253.332 17.578 253.536 17.398C253.74 17.206 253.872 17.062 253.932 16.966C254.04 16.81 254.124 16.72 254.184 16.696C254.244 16.66 254.34 16.642 254.472 16.642H254.76C254.868 16.642 254.958 16.678 255.03 16.75C255.114 16.81 255.15 16.894 255.138 17.002C255.126 17.17 255.03 17.38 254.85 17.632C254.682 17.872 254.436 18.112 254.112 18.352C253.8 18.592 253.416 18.79 252.96 18.946C252.504 19.102 251.994 19.18 251.43 19.18ZM248.586 13.762H254.31V13.69C254.31 13.09 254.196 12.55 253.968 12.07C253.74 11.59 253.41 11.212 252.978 10.936C252.546 10.648 252.03 10.504 251.43 10.504C250.83 10.504 250.314 10.648 249.882 10.936C249.462 11.212 249.138 11.59 248.91 12.07C248.694 12.55 248.586 13.09 248.586 13.69V13.762ZM258.178 19C258.058 19 257.962 18.964 257.89 18.892C257.818 18.82 257.782 18.724 257.782 18.604V10.036C257.782 9.916 257.818 9.82 257.89 9.748C257.962 9.676 258.058 9.64 258.178 9.64H258.484C258.604 9.64 258.7 9.676 258.772 9.748C258.844 9.82 258.88 9.916 258.88 10.036V10.666C259.18 10.282 259.534 9.988 259.942 9.784C260.362 9.568 260.866 9.46 261.454 9.46C262.798 9.46 263.758 10.024 264.334 11.152C264.61 10.636 265.012 10.228 265.54 9.928C266.08 9.616 266.698 9.46 267.394 9.46C268.03 9.46 268.6 9.61 269.104 9.91C269.62 10.198 270.022 10.63 270.31 11.206C270.61 11.782 270.76 12.502 270.76 13.366V18.604C270.76 18.724 270.724 18.82 270.652 18.892C270.58 18.964 270.484 19 270.364 19H270.058C269.938 19 269.842 18.964 269.77 18.892C269.698 18.82 269.662 18.724 269.662 18.604V13.546C269.662 12.754 269.548 12.142 269.32 11.71C269.092 11.266 268.792 10.954 268.42 10.774C268.048 10.594 267.646 10.504 267.214 10.504C266.854 10.504 266.488 10.594 266.116 10.774C265.744 10.954 265.432 11.266 265.18 11.71C264.94 12.142 264.82 12.754 264.82 13.546V18.604C264.82 18.724 264.784 18.82 264.712 18.892C264.64 18.964 264.544 19 264.424 19H264.118C263.998 19 263.902 18.964 263.83 18.892C263.758 18.82 263.722 18.724 263.722 18.604V13.546C263.722 12.754 263.602 12.142 263.362 11.71C263.122 11.266 262.816 10.954 262.444 10.774C262.072 10.594 261.682 10.504 261.274 10.504C260.914 10.504 260.548 10.594 260.176 10.774C259.804 10.954 259.492 11.266 259.24 11.71C259 12.142 258.88 12.748 258.88 13.528V18.604C258.88 18.724 258.844 18.82 258.772 18.892C258.7 18.964 258.604 19 258.484 19H258.178Z" fill="#3F4254"/>
<path d="M0 6C0 2.68629 2.68629 0 6 0H94C95.1046 0 96 0.895431 96 2V20C96 23.3137 93.3137 26 90 26H2C0.895429 26 0 25.1046 0 24V6Z" fill="#0094FF"/>
<path d="M8.53 18C8.43 18 8.345 17.965 8.275 17.895C8.205 17.825 8.17 17.74 8.17 17.64V7.875C8.17 7.765 8.205 7.675 8.275 7.605C8.345 7.535 8.43 7.5 8.53 7.5H12.19C13.2 7.5 14.03 7.655 14.68 7.965C15.34 8.275 15.835 8.735 16.165 9.345C16.505 9.955 16.68 10.7 16.69 11.58C16.71 12.02 16.72 12.41 16.72 12.75C16.72 13.09 16.71 13.475 16.69 13.905C16.67 14.835 16.5 15.605 16.18 16.215C15.86 16.815 15.375 17.265 14.725 17.565C14.085 17.855 13.265 18 12.265 18H8.53ZM10.255 16.275H12.19C12.75 16.275 13.205 16.195 13.555 16.035C13.905 15.875 14.16 15.62 14.32 15.27C14.49 14.91 14.58 14.44 14.59 13.86C14.6 13.56 14.605 13.3 14.605 13.08C14.615 12.85 14.615 12.625 14.605 12.405C14.605 12.175 14.6 11.915 14.59 11.625C14.57 10.805 14.365 10.2 13.975 9.81C13.585 9.42 12.965 9.225 12.115 9.225H10.255V16.275ZM21.8969 18.15C20.7869 18.15 19.9069 17.83 19.2569 17.19C18.6069 16.55 18.2569 15.64 18.2069 14.46C18.1969 14.36 18.1919 14.235 18.1919 14.085C18.1919 13.925 18.1969 13.8 18.2069 13.71C18.2469 12.96 18.4169 12.31 18.7169 11.76C19.0269 11.21 19.4519 10.79 19.9919 10.5C20.5319 10.2 21.1669 10.05 21.8969 10.05C22.7069 10.05 23.3869 10.22 23.9369 10.56C24.4869 10.89 24.9019 11.355 25.1819 11.955C25.4619 12.545 25.6019 13.23 25.6019 14.01V14.325C25.6019 14.425 25.5669 14.51 25.4969 14.58C25.4269 14.65 25.3369 14.685 25.2269 14.685H20.2469C20.2469 14.685 20.2469 14.7 20.2469 14.73C20.2469 14.76 20.2469 14.785 20.2469 14.805C20.2569 15.155 20.3219 15.48 20.4419 15.78C20.5719 16.07 20.7569 16.305 20.9969 16.485C21.2469 16.665 21.5419 16.755 21.8819 16.755C22.1619 16.755 22.3969 16.715 22.5869 16.635C22.7769 16.545 22.9319 16.445 23.0519 16.335C23.1719 16.225 23.2569 16.135 23.3069 16.065C23.3969 15.945 23.4669 15.875 23.5169 15.855C23.5769 15.825 23.6619 15.81 23.7719 15.81H25.0619C25.1619 15.81 25.2419 15.84 25.3019 15.9C25.3719 15.96 25.4019 16.035 25.3919 16.125C25.3819 16.285 25.2969 16.48 25.1369 16.71C24.9869 16.94 24.7669 17.165 24.4769 17.385C24.1869 17.605 23.8219 17.79 23.3819 17.94C22.9519 18.08 22.4569 18.15 21.8969 18.15ZM20.2469 13.425H23.5619V13.38C23.5619 12.99 23.4969 12.65 23.3669 12.36C23.2369 12.07 23.0469 11.84 22.7969 11.67C22.5469 11.5 22.2469 11.415 21.8969 11.415C21.5469 11.415 21.2469 11.5 20.9969 11.67C20.7469 11.84 20.5569 12.07 20.4269 12.36C20.3069 12.65 20.2469 12.99 20.2469 13.38V13.425ZM27.5541 18C27.4541 18 27.3691 17.965 27.2991 17.895C27.2291 17.825 27.1941 17.74 27.1941 17.64V10.56C27.1941 10.46 27.2291 10.375 27.2991 10.305C27.3691 10.235 27.4541 10.2 27.5541 10.2H28.7841C28.8841 10.2 28.9691 10.235 29.0391 10.305C29.1091 10.375 29.1441 10.46 29.1441 10.56V11.175C29.4041 10.855 29.7341 10.59 30.1341 10.38C30.5441 10.16 31.0491 10.05 31.6491 10.05C32.2591 10.05 32.7891 10.19 33.2391 10.47C33.6891 10.74 34.0341 11.125 34.2741 11.625C34.5241 12.125 34.6491 12.725 34.6491 13.425V17.64C34.6491 17.74 34.6141 17.825 34.5441 17.895C34.4741 17.965 34.3891 18 34.2891 18H32.9691C32.8691 18 32.7841 17.965 32.7141 17.895C32.6441 17.825 32.6091 17.74 32.6091 17.64V13.515C32.6091 12.935 32.4641 12.48 32.1741 12.15C31.8941 11.82 31.4841 11.655 30.9441 11.655C30.4241 11.655 30.0091 11.82 29.6991 12.15C29.3891 12.48 29.2341 12.935 29.2341 13.515V17.64C29.2341 17.74 29.1991 17.825 29.1291 17.895C29.0591 17.965 28.9741 18 28.8741 18H27.5541ZM39.9916 18C39.3916 18 38.8866 17.895 38.4766 17.685C38.0666 17.475 37.7616 17.165 37.5616 16.755C37.3616 16.335 37.2616 15.815 37.2616 15.195V11.79H36.0766C35.9766 11.79 35.8916 11.755 35.8216 11.685C35.7516 11.615 35.7166 11.53 35.7166 11.43V10.56C35.7166 10.46 35.7516 10.375 35.8216 10.305C35.8916 10.235 35.9766 10.2 36.0766 10.2H37.2616V7.71C37.2616 7.61 37.2916 7.525 37.3516 7.455C37.4216 7.385 37.5116 7.35 37.6216 7.35H38.8366C38.9366 7.35 39.0216 7.385 39.0916 7.455C39.1616 7.525 39.1966 7.61 39.1966 7.71V10.2H41.0716C41.1716 10.2 41.2566 10.235 41.3266 10.305C41.3966 10.375 41.4316 10.46 41.4316 10.56V11.43C41.4316 11.53 41.3966 11.615 41.3266 11.685C41.2566 11.755 41.1716 11.79 41.0716 11.79H39.1966V15.045C39.1966 15.455 39.2666 15.775 39.4066 16.005C39.5566 16.235 39.8116 16.35 40.1716 16.35H41.2066C41.3066 16.35 41.3916 16.385 41.4616 16.455C41.5316 16.525 41.5666 16.61 41.5666 16.71V17.64C41.5666 17.74 41.5316 17.825 41.4616 17.895C41.3916 17.965 41.3066 18 41.2066 18H39.9916ZM45.1622 18.15C44.6422 18.15 44.1722 18.05 43.7522 17.85C43.3322 17.64 42.9972 17.365 42.7472 17.025C42.5072 16.675 42.3872 16.285 42.3872 15.855C42.3872 15.155 42.6672 14.6 43.2272 14.19C43.7972 13.77 44.5472 13.49 45.4772 13.35L47.5322 13.05V12.735C47.5322 12.315 47.4272 11.99 47.2172 11.76C47.0072 11.53 46.6472 11.415 46.1372 11.415C45.7772 11.415 45.4822 11.49 45.2522 11.64C45.0322 11.78 44.8672 11.97 44.7572 12.21C44.6772 12.34 44.5622 12.405 44.4122 12.405H43.2272C43.1172 12.405 43.0322 12.375 42.9722 12.315C42.9222 12.255 42.8972 12.175 42.8972 12.075C42.9072 11.915 42.9722 11.72 43.0922 11.49C43.2122 11.26 43.4022 11.04 43.6622 10.83C43.9222 10.61 44.2572 10.425 44.6672 10.275C45.0772 10.125 45.5722 10.05 46.1522 10.05C46.7822 10.05 47.3122 10.13 47.7422 10.29C48.1822 10.44 48.5322 10.645 48.7922 10.905C49.0522 11.165 49.2422 11.47 49.3622 11.82C49.4822 12.17 49.5422 12.54 49.5422 12.93V17.64C49.5422 17.74 49.5072 17.825 49.4372 17.895C49.3672 17.965 49.2822 18 49.1822 18H47.9672C47.8572 18 47.7672 17.965 47.6972 17.895C47.6372 17.825 47.6072 17.74 47.6072 17.64V17.055C47.4772 17.245 47.3022 17.425 47.0822 17.595C46.8622 17.755 46.5922 17.89 46.2722 18C45.9622 18.1 45.5922 18.15 45.1622 18.15ZM45.6722 16.725C46.0222 16.725 46.3372 16.65 46.6172 16.5C46.9072 16.35 47.1322 16.12 47.2922 15.81C47.4622 15.49 47.5472 15.09 47.5472 14.61V14.295L46.0472 14.535C45.4572 14.625 45.0172 14.77 44.7272 14.97C44.4372 15.17 44.2922 15.415 44.2922 15.705C44.2922 15.925 44.3572 16.115 44.4872 16.275C44.6272 16.425 44.8022 16.54 45.0122 16.62C45.2222 16.69 45.4422 16.725 45.6722 16.725ZM51.8416 18C51.7416 18 51.6566 17.965 51.5866 17.895C51.5166 17.825 51.4816 17.74 51.4816 17.64V7.71C51.4816 7.61 51.5166 7.525 51.5866 7.455C51.6566 7.385 51.7416 7.35 51.8416 7.35H53.0866C53.1866 7.35 53.2716 7.385 53.3416 7.455C53.4116 7.525 53.4466 7.61 53.4466 7.71V17.64C53.4466 17.74 53.4116 17.825 53.3416 17.895C53.2716 17.965 53.1866 18 53.0866 18H51.8416ZM59.6663 18.15C58.7363 18.15 57.9463 17.99 57.2963 17.67C56.6563 17.34 56.1663 16.875 55.8263 16.275C55.4863 15.665 55.2963 14.935 55.2563 14.085C55.2463 13.675 55.2413 13.235 55.2413 12.765C55.2413 12.295 55.2463 11.845 55.2563 11.415C55.2963 10.575 55.4863 9.85 55.8263 9.24C56.1763 8.63 56.6713 8.165 57.3113 7.845C57.9613 7.515 58.7463 7.35 59.6663 7.35C60.3463 7.35 60.9563 7.44 61.4963 7.62C62.0363 7.8 62.4963 8.05 62.8763 8.37C63.2563 8.68 63.5513 9.045 63.7613 9.465C63.9713 9.885 64.0813 10.34 64.0913 10.83C64.1013 10.92 64.0713 10.995 64.0013 11.055C63.9413 11.115 63.8663 11.145 63.7763 11.145H62.3513C62.2413 11.145 62.1513 11.12 62.0813 11.07C62.0113 11.01 61.9613 10.915 61.9313 10.785C61.7713 10.125 61.4963 9.675 61.1063 9.435C60.7163 9.195 60.2313 9.075 59.6513 9.075C58.9813 9.075 58.4463 9.265 58.0463 9.645C57.6463 10.015 57.4313 10.63 57.4013 11.49C57.3713 12.31 57.3713 13.15 57.4013 14.01C57.4313 14.87 57.6463 15.49 58.0463 15.87C58.4463 16.24 58.9813 16.425 59.6513 16.425C60.2313 16.425 60.7163 16.305 61.1063 16.065C61.4963 15.815 61.7713 15.365 61.9313 14.715C61.9613 14.575 62.0113 14.48 62.0813 14.43C62.1513 14.38 62.2413 14.355 62.3513 14.355H63.7763C63.8663 14.355 63.9413 14.385 64.0013 14.445C64.0713 14.505 64.1013 14.58 64.0913 14.67C64.0813 15.16 63.9713 15.615 63.7613 16.035C63.5513 16.455 63.2563 16.825 62.8763 17.145C62.4963 17.455 62.0363 17.7 61.4963 17.88C60.9563 18.06 60.3463 18.15 59.6663 18.15ZM67.9552 18.15C67.4352 18.15 66.9652 18.05 66.5452 17.85C66.1252 17.64 65.7902 17.365 65.5402 17.025C65.3002 16.675 65.1802 16.285 65.1802 15.855C65.1802 15.155 65.4602 14.6 66.0202 14.19C66.5902 13.77 67.3402 13.49 68.2702 13.35L70.3252 13.05V12.735C70.3252 12.315 70.2202 11.99 70.0102 11.76C69.8002 11.53 69.4402 11.415 68.9302 11.415C68.5702 11.415 68.2752 11.49 68.0452 11.64C67.8252 11.78 67.6602 11.97 67.5502 12.21C67.4702 12.34 67.3552 12.405 67.2052 12.405H66.0202C65.9102 12.405 65.8252 12.375 65.7652 12.315C65.7152 12.255 65.6902 12.175 65.6902 12.075C65.7002 11.915 65.7652 11.72 65.8852 11.49C66.0052 11.26 66.1952 11.04 66.4552 10.83C66.7152 10.61 67.0502 10.425 67.4602 10.275C67.8702 10.125 68.3652 10.05 68.9452 10.05C69.5752 10.05 70.1052 10.13 70.5352 10.29C70.9752 10.44 71.3252 10.645 71.5852 10.905C71.8452 11.165 72.0352 11.47 72.1552 11.82C72.2752 12.17 72.3352 12.54 72.3352 12.93V17.64C72.3352 17.74 72.3002 17.825 72.2302 17.895C72.1602 17.965 72.0752 18 71.9752 18H70.7602C70.6502 18 70.5602 17.965 70.4902 17.895C70.4302 17.825 70.4002 17.74 70.4002 17.64V17.055C70.2702 17.245 70.0952 17.425 69.8752 17.595C69.6552 17.755 69.3852 17.89 69.0652 18C68.7552 18.1 68.3852 18.15 67.9552 18.15ZM68.4652 16.725C68.8152 16.725 69.1302 16.65 69.4102 16.5C69.7002 16.35 69.9252 16.12 70.0852 15.81C70.2552 15.49 70.3402 15.09 70.3402 14.61V14.295L68.8402 14.535C68.2502 14.625 67.8102 14.77 67.5202 14.97C67.2302 15.17 67.0852 15.415 67.0852 15.705C67.0852 15.925 67.1502 16.115 67.2802 16.275C67.4202 16.425 67.5952 16.54 67.8052 16.62C68.0152 16.69 68.2352 16.725 68.4652 16.725ZM74.6195 18C74.5195 18 74.4345 17.965 74.3645 17.895C74.2945 17.825 74.2595 17.74 74.2595 17.64V10.575C74.2595 10.465 74.2945 10.375 74.3645 10.305C74.4345 10.235 74.5195 10.2 74.6195 10.2H75.8345C75.9345 10.2 76.0195 10.235 76.0895 10.305C76.1695 10.375 76.2095 10.465 76.2095 10.575V11.19C76.4395 10.87 76.7345 10.625 77.0945 10.455C77.4645 10.285 77.8895 10.2 78.3695 10.2H78.9845C79.0945 10.2 79.1795 10.235 79.2395 10.305C79.3095 10.375 79.3445 10.46 79.3445 10.56V11.64C79.3445 11.74 79.3095 11.825 79.2395 11.895C79.1795 11.965 79.0945 12 78.9845 12H77.8145C77.3345 12 76.9595 12.135 76.6895 12.405C76.4295 12.675 76.2995 13.045 76.2995 13.515V17.64C76.2995 17.74 76.2645 17.825 76.1945 17.895C76.1245 17.965 76.0345 18 75.9245 18H74.6195ZM83.7719 18.15C82.6619 18.15 81.7819 17.83 81.1319 17.19C80.4819 16.55 80.1319 15.64 80.0819 14.46C80.0719 14.36 80.0669 14.235 80.0669 14.085C80.0669 13.925 80.0719 13.8 80.0819 13.71C80.1219 12.96 80.2919 12.31 80.5919 11.76C80.9019 11.21 81.3269 10.79 81.8669 10.5C82.4069 10.2 83.0419 10.05 83.7719 10.05C84.5819 10.05 85.2619 10.22 85.8119 10.56C86.3619 10.89 86.7769 11.355 87.0569 11.955C87.3369 12.545 87.4769 13.23 87.4769 14.01V14.325C87.4769 14.425 87.4419 14.51 87.3719 14.58C87.3019 14.65 87.2119 14.685 87.1019 14.685H82.1219C82.1219 14.685 82.1219 14.7 82.1219 14.73C82.1219 14.76 82.1219 14.785 82.1219 14.805C82.1319 15.155 82.1969 15.48 82.3169 15.78C82.4469 16.07 82.6319 16.305 82.8719 16.485C83.1219 16.665 83.4169 16.755 83.7569 16.755C84.0369 16.755 84.2719 16.715 84.4619 16.635C84.6519 16.545 84.8069 16.445 84.9269 16.335C85.0469 16.225 85.1319 16.135 85.1819 16.065C85.2719 15.945 85.3419 15.875 85.3919 15.855C85.4519 15.825 85.5369 15.81 85.6469 15.81H86.9369C87.0369 15.81 87.1169 15.84 87.1769 15.9C87.2469 15.96 87.2769 16.035 87.2669 16.125C87.2569 16.285 87.1719 16.48 87.0119 16.71C86.8619 16.94 86.6419 17.165 86.3519 17.385C86.0619 17.605 85.6969 17.79 85.2569 17.94C84.8269 18.08 84.3319 18.15 83.7719 18.15ZM82.1219 13.425H85.4369V13.38C85.4369 12.99 85.3719 12.65 85.2419 12.36C85.1119 12.07 84.9219 11.84 84.6719 11.67C84.4219 11.5 84.1219 11.415 83.7719 11.415C83.4219 11.415 83.1219 11.5 82.8719 11.67C82.6219 11.84 82.4319 12.07 82.3019 12.36C82.1819 12.65 82.1219 12.99 82.1219 13.38V13.425Z" fill="white"/>
</svg>
